HIERARCHY
ROOT hip
{
  OFFSET 0 0 0
  CHANNELS 6 Xposition Yposition Zposition Zrotation Yrotation Xrotation
  JOINT abdomen
  {
    OFFSET 0 20.6881 -0.73152
    CHANNELS 3 Zrotation Xrotation Yrotation
    JOINT chest
    {
      OFFSET 0 11.7043 -0.48768
      CHANNELS 3 Zrotation Xrotation Yrotation
      JOINT neck
      {
        OFFSET 0 22.1894 -2.19456
        CHANNELS 3 Zrotation Xrotation Yrotation
        JOINT head
        {
          OFFSET -0.24384 7.07133 1.2192
          CHANNELS 3 Zrotation Xrotation Yrotation
          JOINT leftEye
          {
            OFFSET 4.14528 8.04674 8.04672
            CHANNELS 3 Zrotation Xrotation Yrotation
            End Site
            {
              OFFSET 1 0 0
            }
          }
          JOINT rightEye
          {
            OFFSET -3.6576 8.04674 8.04672
            CHANNELS 3 Zrotation Xrotation Yrotation
            End Site
            {
              OFFSET 1 0 0
            }
          }
        }
      }
      JOINT rCollar
      {
        OFFSET -2.68224 19.2634 -4.8768
        CHANNELS 3 Zrotation Xrotation Yrotation
        JOINT rShldr
        {
          OFFSET -8.77824 -1.95073 1.46304
          CHANNELS 3 Zrotation Xrotation Yrotation
          JOINT rForeArm
          {
            OFFSET -28.1742 -1.7115 0.48768
            CHANNELS 3 Zrotation Xrotation Yrotation
            JOINT rHand
            {
              OFFSET -22.5879 0.773209 7.07136
              CHANNELS 3 Zrotation Xrotation Yrotation
              JOINT rThumb1
              {
                OFFSET -1.2192 -0.487915 3.41376
                CHANNELS 3 Zrotation Xrotation Yrotation
                JOINT rThumb2
                {
                  OFFSET -3.37035 -0.52449 3.41376
                  CHANNELS 3 Zrotation Xrotation Yrotation
                  End Site
                  {
                    OFFSET -1.78271 -1.18214 1.43049
                  }
                }
              }
              JOINT rIndex1
              {
                OFFSET -7.75947 0.938293 5.60832
                CHANNELS 3 Zrotation Xrotation Yrotation
                JOINT rIndex2
                {
                  OFFSET -2.54057 -0.884171 1.56538
                  CHANNELS 3 Zrotation Xrotation Yrotation
                  End Site
                  {
                    OFFSET -1.62519 -0.234802 1.16502
                  }
                }
              }
              JOINT rMid1
              {
                OFFSET -8.24714 1.18213 3.41376
                CHANNELS 3 Zrotation Xrotation Yrotation
                JOINT rMid2
                {
                  OFFSET -3.10165 -0.590103 1.0647
                  CHANNELS 3 Zrotation Xrotation Yrotation
                  End Site
                  {
                    OFFSET -2.48547 -0.328903 0.83742
                  }
                }
              }
              JOINT rRing1
              {
                OFFSET -8.82822 0.546677 1.51678
                CHANNELS 3 Zrotation Xrotation Yrotation
                JOINT rRing2
                {
                  OFFSET -2.60934 -0.819778 -0.0198488
                  CHANNELS 3 Zrotation Xrotation Yrotation
                  End Site
                  {
                    OFFSET -2.33842 -0.294052 0.168128
                  }
                }
              }
              JOINT rPinky1
              {
                OFFSET -8.27202 -0.0477905 -0.4584
                CHANNELS 3 Zrotation Xrotation Yrotation
                JOINT rPinky2
                {
                  OFFSET -1.82734 -0.647385 -0.700984
                  CHANNELS 3 Zrotation Xrotation Yrotation
                  End Site
                  {
                    OFFSET -1.69225 -0.51767 -0.607171
                  }
                }
              }
            }
          }
        }
      }
      JOINT lCollar
      {
        OFFSET 2.68224 19.2634 -4.8768
        CHANNELS 3 Zrotation Xrotation Yrotation
        JOINT lShldr
        {
          OFFSET 8.77824 -1.95073 1.46304
          CHANNELS 3 Zrotation Xrotation Yrotation
          JOINT lForeArm
          {
            OFFSET 28.1742 -1.7115 0.48768
            CHANNELS 3 Zrotation Xrotation Yrotation
            JOINT lHand
            {
              OFFSET 22.5879 0.773209 7.07136
              CHANNELS 3 Zrotation Xrotation Yrotation
              JOINT lThumb1
              {
                OFFSET 1.2192 -0.487915 3.41376
                CHANNELS 3 Zrotation Xrotation Yrotation
                JOINT lThumb2
                {
                  OFFSET 3.37035 -0.52449 3.41376
                  CHANNELS 3 Zrotation Xrotation Yrotation
                  End Site
                  {
                    OFFSET 1.78271 -1.18214 1.43049
                  }
                }
              }
              JOINT lIndex1
              {
                OFFSET 7.75947 0.938293 5.60832
                CHANNELS 3 Zrotation Xrotation Yrotation
                JOINT lIndex2
                {
                  OFFSET 2.54057 -0.884171 1.56538
                  CHANNELS 3 Zrotation Xrotation Yrotation
                  End Site
                  {
                    OFFSET 1.62519 -0.234802 1.16502
                  }
                }
              }
              JOINT lMid1
              {
                OFFSET 8.24714 1.18213 3.41376
                CHANNELS 3 Zrotation Xrotation Yrotation
                JOINT lMid2
                {
                  OFFSET 3.10165 -0.590103 1.0647
                  CHANNELS 3 Zrotation Xrotation Yrotation
                  End Site
                  {
                    OFFSET 2.48547 -0.328903 0.83742
                  }
                }
              }
              JOINT lRing1
              {
                OFFSET 8.82822 0.546677 1.51678
                CHANNELS 3 Zrotation Xrotation Yrotation
                JOINT lRing2
                {
                  OFFSET 2.60934 -0.819778 -0.0198488
                  CHANNELS 3 Zrotation Xrotation Yrotation
                  End Site
                  {
                    OFFSET 2.33842 -0.294052 0.168128
                  }
                }
              }
              JOINT lPinky1
              {
                OFFSET 8.27202 -0.0477905 -0.4584
                CHANNELS 3 Zrotation Xrotation Yrotation
                JOINT lPinky2
                {
                  OFFSET 1.82734 -0.647385 -0.700984
                  CHANNELS 3 Zrotation Xrotation Yrotation
                  End Site
                  {
                    OFFSET 1.69225 -0.51767 -0.607171
                  }
                }
              }
            }
          }
        }
      }
    }
  }
  JOINT rButtock
  {
    OFFSET -8.77824 4.35084 1.2192
    CHANNELS 3 Zrotation Xrotation Yrotation
    JOINT rThigh
    {
      OFFSET 0 -1.70687 -2.19456
      CHANNELS 3 Zrotation Xrotation Yrotation
      JOINT rShin
      {
        OFFSET 0 -36.8199 0.73152
        CHANNELS 3 Zrotation Xrotation Yrotation
        JOINT rFoot
        {
          OFFSET 0.73152 -45.1104 -5.12064
          CHANNELS 3 Zrotation Xrotation Yrotation
          End Site
          {
            OFFSET -1.1221 -3.69964 12.103
          }
        }
      }
    }
  }
  JOINT lButtock
  {
    OFFSET 8.77824 4.35084 1.2192
    CHANNELS 3 Zrotation Xrotation Yrotation
    JOINT lThigh
    {
      OFFSET 0 -1.70687 -2.19456
      CHANNELS 3 Zrotation Xrotation Yrotation
      JOINT lShin
      {
        OFFSET 0 -36.8199 0.73152
        CHANNELS 3 Zrotation Xrotation Yrotation
        JOINT lFoot
        {
          OFFSET -0.73152 -45.1104 -5.12064
          CHANNELS 3 Zrotation Xrotation Yrotation
          End Site
          {
            OFFSET 1.1221 -3.69964 12.103
          }
        }
      }
    }
  }
}
MOTION
Frames:	4
Frame Time:	0.00833333
52.093 84.3427 -218.23 -5.7082 -62.7283 -349.107 7.19463 8.51279 1.86725 -0.0561221 -6.88923 0.754615 6.41069 11.4666 14.6853 -7.17314 -24.4066 27.1056 -0.0 0.0 0.0 -0.0 0.0 0.0 1.6988e-13 6.1678e-13 8.35913e-14 52.4898 59.0542 47.2587 -14.3383 -7.23072 26.2372 -0.420887 18.1285 2.63732 -8.0443e-10 1.6595e-09 -2.18815e-09 -1.42386e-09 2.93118e-09 -3.76908e-09 -8.04423e-10 1.6595e-09 -2.18816e-09 7.73091 5.47488 0.417314 -8.04433e-10 1.6595e-09 -2.18816e-09 2.90554 0.965183 0.102902 -8.04425e-10 1.6595e-09 -2.18815e-09 10.2786 0.731801 0.0259123 -8.04434e-10 1.6595e-09 -2.18814e-09 2.22167 -0.733487 -0.20892 1.69917e-13 6.16773e-13 8.34038e-14 34.8381 73.366 -127.963 28.0239 -40.2859 -84.4359 0.628117 -21.9216 3.24231 8.66086e-10 -2.86963e-09 2.17591e-09 1.46259e-09 -4.96704e-09 3.77267e-09 8.66087e-10 -2.86964e-09 2.17593e-09 -7.73091 5.47488 -0.417314 8.66085e-10 -2.86963e-09 2.17591e-09 -2.90554 0.965183 -0.102902 8.66079e-10 -2.86962e-09 2.17591e-09 -10.2786 0.731801 -0.0259123 8.6609e-10 -2.86962e-09 2.1759e-09 -2.22167 -0.733487 0.20892 -2.03217e-16 0.0 -3.88251e-19 13.3285 -21.6381 3.31549 -0.0364143 33.463 0.793183 -13.9342 -14.2372 -38.3825 2.03217e-16 0.0 3.88251e-19 3.50985 -29.1645 1.18047 0.506844 47.7862 -1.15125 4.77324 -17.7666 11.065
52.063 84.3942 -218.331 -5.521 -61.8053 -349.612 7.12616 8.40817 2.16942 -0.187067 -6.89484 0.833591 6.63212 11.2005 14.2224 -6.84321 -24.1225 26.219 -0.0 0.0 0.0 -0.0 0.0 0.0 7.22377e-14 4.26794e-13 4.51999e-13 52.7009 59.0904 47.2265 -14.4433 -7.318 26.45 -0.405793 17.8145 2.58849 9.71389e-10 -2.50458e-09 -2.20435e-09 1.64325e-09 -4.25296e-09 -3.82608e-09 9.71399e-10 -2.50458e-09 -2.20436e-09 7.73091 5.47488 0.417314 9.71386e-10 -2.50457e-09 -2.20435e-09 2.90554 0.965183 0.102902 9.71394e-10 -2.50457e-09 -2.20435e-09 10.2786 0.731801 0.0259123 9.71386e-10 -2.50457e-09 -2.20434e-09 2.22167 -0.733487 -0.20892 7.22867e-14 4.26788e-13 4.51766e-13 36.063 73.041 -128.932 28.0279 -40.2643 -84.397 0.62919 -21.9391 3.24517 2.18518e-09 -3.77031e-09 2.29271e-09 3.73701e-09 -6.55242e-09 4.00023e-09 2.18518e-09 -3.77031e-09 2.29273e-09 -7.73091 5.47488 -0.417314 2.18518e-09 -3.77032e-09 2.29271e-09 -2.90554 0.965183 -0.102902 2.18518e-09 -3.77031e-09 2.29271e-09 -10.2786 0.731801 -0.0259123 2.18519e-09 -3.7703e-09 2.2927e-09 -2.22167 -0.733487 0.20892 -2.03217e-16 0.0 -3.88251e-19 13.3237 -21.5628 2.8803 -0.0350261 33.3839 0.803022 -15.3595 -16.067 -38.662 2.03217e-16 0.0 3.88251e-19 3.79492 -28.7699 2.25399 0.510438 47.9983 -1.16888 5.09856 -18.2911 11.5836
52.16 84.398 -218.36 -5.131 -60.4446 -349.852 7.03433 8.31019 2.53224 -0.31574 -6.9376 0.929457 6.89179 10.9285 13.7301 -6.54498 -23.7828 25.2656 -0.0 0.0 0.0 -0.0 0.0 0.0 -2.3617e-14 2.20508e-13 7.71003e-13 52.9971 59.1001 47.0847 -14.5402 -7.39896 26.647 -0.391853 17.5194 2.54274 2.51648e-09 -6.09771e-09 -2.11965e-09 4.3133e-09 -1.04563e-08 -3.70511e-09 2.51649e-09 -6.09772e-09 -2.11967e-09 7.73091 5.47488 0.417314 2.51647e-09 -6.0977e-09 -2.11966e-09 2.90554 0.965183 0.102902 2.51648e-09 -6.0977e-09 -2.11965e-09 10.2786 0.731801 0.0259123 2.51647e-09 -6.0977e-09 -2.11965e-09 2.22167 -0.733487 -0.20892 -2.35543e-14 2.20503e-13 7.70729e-13 37.453 72.6959 -130.084 28.0341 -40.2306 -84.3361 0.631665 -21.9796 3.2518 3.27551e-09 -4.45181e-09 2.31241e-09 5.61793e-09 -7.75519e-09 4.05576e-09 3.27551e-09 -4.4518e-09 2.31242e-09 -7.73091 5.47488 -0.417314 3.27551e-09 -4.45181e-09 2.31241e-09 -2.90554 0.965183 -0.102902 3.2755e-09 -4.45181e-09 2.31241e-09 -10.2786 0.731801 -0.0259123 3.27551e-09 -4.4518e-09 2.3124e-09 -2.22167 -0.733487 0.20892 -2.03217e-16 0.0 -3.88251e-19 13.3181 -21.4785 2.47549 -0.0333818 33.2933 0.813852 -16.843 -17.9526 -38.9841 2.03217e-16 0.0 3.88251e-19 4.04211 -28.3475 3.23625 0.512923 48.1561 -1.18257 5.35242 -18.8537 11.9086
52.2725 84.3972 -218.403 -4.8237 -59.0632 -350.049 6.96172 8.23709 2.76176 -0.339676 -6.98672 0.993162 7.00941 10.6681 13.2764 -6.23425 -23.4719 24.4041 -0.0 0.0 0.0 -0.0 0.0 0.0 -7.25707e-14 7.61361e-14 8.62129e-13 52.9322 59.2289 47.1851 -14.6219 -7.4674 26.814 -0.378919 17.2387 2.49939 2.83429e-09 -6.73955e-09 -1.8612e-09 4.86606e-09 -1.15739e-08 -3.264e-09 2.8343e-09 -6.73957e-09 -1.86121e-09 7.73091 5.47488 0.417314 2.83429e-09 -6.73954e-09 -1.8612e-09 2.90554 0.965183 0.102902 2.83429e-09 -6.73954e-09 -1.86119e-09 10.2786 0.731801 0.0259123 2.83429e-09 -6.73955e-09 -1.8612e-09 2.22167 -0.733487 -0.20892 -7.24971e-14 7.61339e-14 8.61831e-13 38.368 72.4633 -130.888 28.0406 -40.195 -84.2718 0.634999 -22.0342 3.26074 3.37309e-09 -4.28168e-09 2.09744e-09 5.78909e-09 -7.46581e-09 3.68655e-09 3.37309e-09 -4.28167e-09 2.09745e-09 -7.73091 5.47488 -0.417314 3.37309e-09 -4.28168e-09 2.09745e-09 -2.90554 0.965183 -0.102902 3.37309e-09 -4.28168e-09 2.09744e-09 -10.2786 0.731801 -0.0259123 3.3731e-09 -4.28168e-09 2.09743e-09 -2.22167 -0.733487 0.20892 -2.03217e-16 0.0 -3.88251e-19 13.2795 -21.4423 2.05384 -0.0325289 33.2288 0.823079 -18.0168 -19.3198 -39.3771 2.03217e-16 0.0 3.88251e-19 4.21385 -27.9599 4.06755 0.512224 48.199 -1.19292 5.63678 -19.2317 12.3589
